<svg width="50" height="50" viewBox="0 0 50 50" fill="none" xmlns="http://www.w3.org/2000/svg">
<path d="M41.6948 2.42236H7.88304C6.1264 2.42236 4.44166 3.12019 3.19951 4.36234C1.95735 5.60452 1.25952 7.28922 1.25952 9.0459V42.8576C1.25952 44.6144 1.95735 46.2991 3.19951 47.5412C4.44166 48.7832 6.1264 49.4812 7.88304 49.4812H23.2713V32.3047H17.4536V25.6047H23.2713V20.6694C23.2713 17.8724 24.0448 15.6988 25.5919 14.1547C27.1389 12.6077 29.236 11.8312 31.8859 11.8312C34.5389 11.8312 36.2565 11.9341 37.0418 12.1283V18.093H33.5065C32.23 18.093 31.3595 18.3635 30.8918 18.9047C30.4271 19.443 30.1948 20.2547 30.1948 21.3341V25.6047H36.8212L35.9389 32.3047H30.1948V49.4812H41.6948C43.4515 49.4812 45.1362 48.7832 46.3783 47.5412C47.6206 46.2991 48.3183 44.6144 48.3183 42.8576V9.0459C48.3183 7.28922 47.6206 5.60452 46.3783 4.36234C45.1362 3.12019 43.4515 2.42236 41.6948 2.42236Z" fill="#F9DF5A"/>
</svg>
