<svg width="70" height="70" viewBox="0 0 70 70" fill="none" xmlns="http://www.w3.org/2000/svg">
<g clip-path="url(#clip0)">
<path d="M35.0003 70.0001C34.7737 70.0001 34.5469 69.965 34.3284 69.895C26.9852 67.5428 20.7334 63.031 15.7464 56.4852C11.8202 51.3317 8.67648 44.9176 6.40308 37.4211C2.56806 24.7768 2.52402 13.5127 2.52402 13.0394C2.52402 11.9053 3.38554 10.9563 4.51464 10.8473C4.68466 10.8308 21.7887 9.07492 33.7063 0.420247C34.478 -0.140449 35.5229 -0.139788 36.2946 0.420467C48.2088 9.07492 65.3151 10.8308 65.4865 10.8475C66.6147 10.9576 67.476 11.9061 67.476 13.0394C67.476 13.5127 67.4319 24.7768 63.5971 37.4213C61.3235 44.9178 58.18 51.3319 54.2538 56.4854C49.267 63.0312 43.0152 67.543 35.672 69.8952C35.4536 69.965 35.2269 70.0001 35.0003 70.0001ZM6.99175 14.9715C7.17475 18.6678 7.8863 27.1804 10.6484 36.2433C15.3623 51.7092 23.5539 61.5407 35.0001 65.4775C46.473 61.5319 54.674 51.6669 59.382 36.1429C62.1254 27.0973 62.8292 18.6495 63.0096 14.9717C58.0756 14.2518 45.295 11.8154 34.9999 4.88864C24.7039 11.8148 11.9259 14.2516 6.99175 14.9715Z" fill="#4A4A4A"/>
</g>
<path d="M47.9878 30.3237C47.9875 30.2124 47.9779 30.1018 47.9589 29.9947C47.9479 29.7256 47.8868 29.4648 47.7775 29.2187C47.3167 28.1827 46.2534 27.372 45.1318 27.201C44.9844 27.179 44.8244 27.1733 44.6683 27.1831C44.5548 27.1595 44.4388 27.1476 44.3233 27.1476L44.2735 27.1482C41.7212 27.2215 40.2801 27.2361 38.0726 27.2395C38.4574 26.8839 38.8096 26.553 39.1384 26.2375C39.6246 25.7711 39.7763 25.1309 39.5457 24.5245C39.2859 23.842 38.6227 23.3652 37.9339 23.3652C37.5329 23.3652 37.1539 23.5262 36.8369 23.83C35.7031 24.9182 34.4771 26.0254 33.1923 27.1219C32.6076 27.2487 32.1207 27.7749 31.9653 28.4588C31.801 29.183 32.0557 29.8667 32.6469 30.2874C34.2337 31.4169 35.7665 32.6479 37.2027 33.947C37.5195 34.233 37.895 34.3843 38.2889 34.3843C38.9931 34.3843 39.6854 33.8862 39.9353 33.1999C40.1572 32.592 39.9952 31.9825 39.4926 31.528C39.1723 31.2386 38.8349 30.9425 38.4588 30.6211C40.6131 30.6164 41.9289 30.5981 44.2906 30.5306C44.3616 30.5284 44.4296 30.5212 44.4953 30.5113C44.555 30.5249 44.6144 30.5401 44.6733 30.5584C44.6868 30.5658 44.6999 30.5736 44.712 30.5814C44.7132 30.95 44.7149 31.3188 44.7168 31.6874C44.7279 33.9757 44.7392 36.3413 44.5598 38.658L44.5502 38.6755C44.5417 38.6884 44.521 38.7179 44.4995 38.7486L44.4472 38.8251C44.3668 38.9207 44.2779 39.013 44.1764 39.1074C44.0977 39.1637 44.0136 39.2116 43.9347 39.2575C43.9177 39.2665 43.9007 39.2753 43.8832 39.2841C43.8636 39.2899 43.8418 39.2973 43.8169 39.3066C42.5255 39.3081 41.2901 39.3157 40.0879 39.323C38.8375 39.3303 37.6231 39.3385 36.4189 39.3385C33.6126 39.3385 30.2184 39.3016 26.319 39.0288C26.239 39.0232 26.1478 39.025 26.1074 39.0282H25.4117C25.3691 39.0142 25.3254 39.0019 25.2798 38.9913C25.2027 38.9747 25.1277 38.9551 25.0439 38.9294C25.0071 38.909 24.9717 38.8859 24.9367 38.8625C24.9065 38.8345 24.8769 38.8067 24.8477 38.7775C24.8217 38.7515 24.7938 38.7296 24.7619 38.7074C24.7454 38.6898 24.7292 38.6731 24.7121 38.6559C24.683 38.5615 24.6454 38.4672 24.599 38.3755C24.5796 37.589 24.5232 36.7961 24.469 36.028C24.3371 34.1643 24.2121 32.4001 24.5509 30.6409C25.7491 30.6685 26.9454 30.7282 28.3515 30.8087C29.4246 30.8715 29.9367 30.0276 29.9573 29.2483C29.9801 28.3891 29.4472 27.4876 28.3836 27.4267C26.7369 27.3327 25.1259 27.2475 23.5053 27.2406C23.2132 27.2406 22.948 27.3072 22.7161 27.439C22.1915 27.595 21.8184 27.9971 21.6629 28.5743C20.9497 31.2171 21.0932 33.9581 21.2323 36.6084C21.2728 37.3809 21.3142 38.1802 21.3344 38.9637C21.3433 39.319 21.4453 39.6445 21.6293 39.9092C21.6893 40.1131 21.7702 40.2945 21.8701 40.4502C22.0415 40.717 22.2414 40.9346 22.5158 41.1522C22.5233 41.1613 22.5315 41.1701 22.5365 41.1753C23.0664 41.7082 23.6696 42.064 24.3298 42.2323C24.5605 42.3507 24.7995 42.4105 25.0412 42.4105H26.1202C26.1484 42.4105 26.1753 42.4076 26.2145 42.4027C26.2358 42.4059 26.2576 42.4082 26.2806 42.41C30.1958 42.6837 33.6028 42.7202 36.4192 42.7202C37.6257 42.7202 38.8416 42.7132 40.0931 42.7051C41.3273 42.6978 42.5955 42.6898 43.9229 42.6887L43.9551 42.6872C44.0052 42.6922 44.0559 42.6945 44.1063 42.6945C44.2577 42.6945 44.4066 42.6715 44.5483 42.625C45.8185 42.209 46.8374 41.3632 47.4963 40.1783C47.5993 39.9925 47.6667 39.79 47.6958 39.5761C47.7544 39.4204 47.7917 39.2524 47.8076 39.0748C48.019 36.6271 48.0065 34.1398 47.9941 31.734C47.9912 31.2646 47.9886 30.7944 47.9878 30.3237Z" fill="#F9DF5A"/>
<defs>
<clipPath id="clip0">
<rect width="70" height="70" fill="white"/>
</clipPath>
</defs>
</svg>
