<svg width="62" height="70" viewBox="0 0 62 70" fill="none" xmlns="http://www.w3.org/2000/svg">
<path d="M7.03352 46.5075C6.51821 47.0594 6.54788 47.9245 7.0997 48.4399C7.3633 48.686 7.69827 48.8078 8.03256 48.8078C8.39816 48.8078 8.76294 48.6621 9.03215 48.3737L9.12157 48.278C13.9826 52.6824 20.2115 55.2125 26.7987 55.4317C27.1111 55.4421 27.422 55.4473 27.7334 55.4473C34.3731 55.447 40.7534 53.09 45.7889 48.7567C46.0014 48.5738 46.2278 48.3715 46.4812 48.1384C46.7944 47.8505 47.072 47.585 47.33 47.3271C48.4311 46.2259 49.4474 45.0228 50.3506 43.7508C51.2072 42.5446 51.9695 41.2652 52.6167 39.948C54.4083 36.3009 55.387 32.2145 55.4464 28.1306C55.5059 24.0536 54.6503 19.9456 52.972 16.2506C51.781 13.6284 50.1976 11.2258 48.2575 9.09109L48.4903 8.84171C49.0056 8.28975 48.976 7.4247 48.4242 6.90926C47.8723 6.39381 47.0072 6.42348 46.4917 6.97543L46.3193 7.16001C43.3472 4.47352 39.8082 2.44249 36.0034 1.256C31.896 -0.0248227 27.4756 -0.333271 23.2202 0.363883C17.472 1.30577 12.2504 3.98679 8.12006 8.11694C7.04583 9.19117 6.0513 10.3641 5.1641 11.6028C5.16396 11.603 5.16396 11.6031 5.16382 11.6031C4.48677 12.5487 3.86413 13.5458 3.31327 14.567C3.31313 14.5673 3.313 14.5676 3.31286 14.5678C1.13731 18.6017 -0.00815967 23.1675 4.37545e-05 27.7715C0.0124856 34.7052 2.55391 41.2489 7.18487 46.3454L7.03352 46.5075ZM48.3153 40.7826C47.5787 40.3225 48.1558 40.6829 48.3153 40.7826V40.7826ZM48.835 41.1056C48.7847 41.1134 48.2992 40.7723 48.386 40.8266C48.3759 40.8203 48.3706 40.8169 48.3669 40.8147C48.3678 40.8152 48.3651 40.8136 48.348 40.8029C48.3461 40.8017 48.3445 40.8007 48.3425 40.7995C47.403 40.2127 46.4765 39.6125 45.5661 38.9816C44.604 38.3151 43.6287 37.6576 42.6012 37.0948C42.2006 36.8755 41.7901 36.6703 41.3657 36.501C41.9384 36.4834 42.5155 36.3401 43.0292 36.0864C44.1786 35.5186 44.8726 34.4636 44.9332 33.1922C44.9406 33.0381 44.9492 32.8924 44.959 32.7544C45.0275 31.7887 45.152 31.2072 45.2716 30.8582C45.6703 31.6158 46.1653 33.1747 46.1148 35.5207C46.0769 37.2774 46.5837 38.6417 47.6215 39.5761C48.0767 39.986 48.6243 40.2919 49.2049 40.4844C49.1622 40.47 48.9221 41.0921 48.835 41.1056ZM5.0137 17.286C5.11119 17.081 5.18515 16.9229 5.18269 16.9218C5.44069 17.0393 5.69582 17.1727 5.93604 17.3238C7.73587 18.4556 8.03694 19.0254 8.69635 20.274C9.00549 20.8592 9.39023 21.5875 9.99373 22.5077C10.4976 23.2756 10.6359 24.0283 10.4051 24.7447C10.338 24.9532 10.2452 25.1449 10.1392 25.3169C9.82091 25.8329 9.38257 26.172 9.15506 26.2596C9.11938 26.2733 9.07795 26.2837 9.03228 26.2915C9.03064 26.2918 9.02914 26.2922 9.02736 26.2924C8.6928 26.3469 8.11405 26.2535 7.55211 26.1627C5.92155 25.8992 4.42032 26.0031 2.781 26.1995C2.96968 23.1155 3.73041 20.0833 5.0137 17.286ZM2.76446 28.9564C3.49374 28.8645 4.22535 28.7915 4.95587 28.7075C5.66027 28.6269 6.40022 28.7462 7.11583 28.8619C7.17831 28.872 7.24107 28.8821 7.30382 28.8921C8.20811 29.0363 9.13579 29.1557 10.0264 28.8503C10.0632 28.8377 10.1001 28.8258 10.1367 28.8117C11.1436 28.4245 12.4716 27.249 13.0081 25.583C13.3496 24.5225 13.5006 22.8682 12.2803 21.0078C11.7476 20.1958 11.4111 19.5587 11.1142 18.9967C10.2824 17.4217 9.69922 16.46 7.39174 15.0089C7.26746 14.9308 7.13853 14.8559 7.00727 14.7828C6.97678 14.7657 6.94629 14.7487 6.91539 14.732C6.78496 14.6612 6.65193 14.5922 6.5152 14.5261C6.51055 14.5239 6.50632 14.5215 6.5018 14.5192C6.58083 14.3924 6.66109 14.2662 6.7423 14.1408C8.01602 14.7401 9.31749 15.3416 10.6747 15.7293C11.1626 15.8686 11.7372 16.0265 12.2506 15.9215C12.8504 15.7989 13.3038 15.2822 13.3361 14.6531C13.3372 14.6307 13.3392 14.6084 13.3392 14.5857C13.3398 14.3973 13.3019 14.2177 13.2331 14.0542C13.1987 13.9724 13.1566 13.8946 13.1075 13.8219C13.083 13.7855 13.0567 13.7504 13.029 13.7165C12.7788 13.4121 12.3998 13.217 11.9759 13.2147C11.7271 13.2147 11.4575 13.1102 11.2247 13.038C10.2519 12.7364 9.31202 12.3139 8.38804 11.89C8.91361 11.2489 9.46214 10.6247 10.0537 10.0505C11.7017 8.4515 13.8361 6.7482 15.9628 5.603C19.2213 3.84842 21.8419 3.2787 21.8419 3.2787C21.8419 3.2787 21.7818 4.14128 21.7052 4.50921C21.4773 5.603 21.2447 6.50647 21.2447 6.50647C20.9605 7.18708 21.2686 7.96558 21.9324 8.27267C21.9482 8.27991 21.9632 8.28839 21.9793 8.29509C22.6762 8.58604 23.4769 8.25722 23.768 7.56047C24.3757 6.10546 24.5733 4.46997 24.7185 2.91241C32.3116 1.99978 39.9726 4.62638 45.3966 10.0505C46.9132 11.567 48.2158 13.2505 49.2874 15.0767C48.3837 14.9448 47.3589 14.873 46.5043 14.5264C43.6948 13.3875 41.8875 13.2818 40.8173 14.1935C40.2216 14.7009 39.9015 15.4564 39.9158 16.321C39.9301 17.1801 40.2619 18.0689 40.8419 18.8626C39.3152 17.8429 37.5557 16.5531 37.202 16.0862C36.746 15.4842 35.8885 15.3659 35.2867 15.822C34.9893 16.0472 34.8106 16.3707 34.7601 16.7126C34.7086 17.0629 34.7917 17.4329 35.0225 17.7374C36.055 19.1004 40.5673 21.9934 41.533 22.5016C42.8735 23.2071 44.8763 23.1367 46.2142 22.4625C47.145 21.9933 47.3788 21.3075 47.4352 20.9405C47.551 20.1875 47.2064 19.4975 46.5129 19.0948C46.1811 18.902 45.8056 18.7907 45.408 18.6728C45.2672 18.6311 45.1217 18.5879 44.9745 18.5401C44.5325 18.3965 44.0735 18.2104 43.6736 17.8923C43.164 17.4867 42.8811 17.0429 42.7467 16.703C42.6856 16.5485 42.6552 16.4157 42.6481 16.3175C43.0115 16.3049 43.8972 16.4203 45.4768 17.0606C47.0989 17.7184 49.042 17.8275 50.7662 18.0298C53.4705 24.4538 53.3793 31.6454 50.5166 37.9905C49.2312 37.8091 48.8228 36.7692 48.8486 35.5795C48.9246 32.057 47.9298 29.0281 46.3732 28.0428C45.7656 27.658 45.0809 27.5875 44.4744 27.8417C44.4339 27.8586 44.3938 27.8769 44.3542 27.8969C42.6335 28.7572 42.3007 30.9907 42.202 33.0619C42.1905 33.3042 42.1086 33.4535 41.9197 33.5769C41.6198 33.7729 41.2091 33.7921 41.0511 33.7485C40.606 33.3933 39.6469 31.7745 39.7146 30.3984C39.8062 28.5357 38.8698 25.8747 37.5252 25.2358C36.8896 24.9338 36.1763 25.0329 35.6637 25.4941C34.8642 26.2138 34.4711 27.7953 33.896 30.3161C33.8176 30.6601 33.7404 30.9985 33.664 31.3192C33.6423 31.4106 33.6223 31.4867 33.6043 31.5499C33.5537 31.5454 33.5026 31.5406 33.4546 31.5361C33.0218 31.4956 32.4289 31.4402 31.6586 31.4821C31.6415 31.483 31.6253 31.4836 31.61 31.484C32.7895 31.0454 33.2607 29.5697 33.6814 28.2514C33.8258 27.7991 33.9621 27.3719 34.0973 27.0714C34.1229 27.0146 34.1468 26.9569 34.1693 26.8984C34.5076 26.0191 34.5118 24.9314 34.176 23.8809C33.7965 22.693 33.0423 21.7704 32.1067 21.3495C31.6653 21.1508 31.2666 21.1016 30.9111 21.1423C30.84 21.1505 30.7707 21.1623 30.703 21.1772C30.6353 21.1921 30.5694 21.2101 30.5053 21.2308C29.9278 21.417 29.4905 21.8183 29.1962 22.0886C28.9203 22.3418 28.6391 22.5999 28.2506 22.8138C27.9484 22.98 27.5812 23.1196 27.1011 23.2093C26.7537 23.2744 26.5104 23.2514 26.3777 23.1412C26.0146 22.8396 25.8306 21.9039 25.8306 20.3597C25.8306 19.8444 25.5454 19.3962 25.1244 19.1631C24.9285 19.0546 24.7033 18.9925 24.4633 18.9925C23.7082 18.9925 23.0961 19.6046 23.0961 20.3597C23.0961 21.5317 23.0961 23.9703 24.6308 25.2449C24.6647 25.273 24.7001 25.3012 24.7372 25.3294C25.2938 25.7516 26.22 26.1556 27.6033 25.8973C29.4707 25.5484 30.4563 24.6437 31.0454 24.1031C31.0846 24.0671 31.1286 24.0268 31.1721 23.9874C31.2604 24.0805 31.3531 24.2119 31.436 24.3778C31.4857 24.4773 31.5318 24.5894 31.5713 24.7131C31.7402 25.2413 31.7091 25.7145 31.6036 25.9493C31.4044 26.392 31.2376 26.9145 31.0762 27.42C30.9272 27.887 30.6893 28.6322 30.5035 28.9473C29.3367 29.2945 28.6807 30.6727 28.7927 31.8695C28.9088 33.1106 29.8861 34.3158 31.8059 34.2127C32.3755 34.1819 32.8137 34.2228 33.2003 34.2589C33.8303 34.3176 34.4819 34.3786 35.1211 33.9881C35.8597 33.5369 36.1356 32.7432 36.3238 31.9527C36.4022 31.6238 36.4812 31.277 36.5617 30.9244C36.6611 30.489 36.786 29.9417 36.919 29.4082C36.9704 29.6923 36.9969 29.9843 36.9831 30.2641C36.8711 32.5415 38.2341 35.1263 39.5276 36.0217C39.5831 36.0601 39.6406 36.0962 39.7001 36.13C39.6982 36.13 39.6964 36.1303 39.6946 36.1303C39.6263 36.1311 39.5593 36.1352 39.493 36.1412C39.4771 36.1426 39.4612 36.1443 39.4455 36.1461C39.3788 36.1535 39.3128 36.1625 39.2482 36.1752C38.9291 36.2384 38.6405 36.3708 38.3964 36.5582C38.2248 36.69 38.0746 36.8481 37.9541 37.0319C37.8171 37.1813 37.2823 37.4576 36.961 37.6237C35.9766 38.1324 34.7514 38.7656 34.5792 40.0635C34.5103 40.5831 34.6313 41.094 34.9395 41.5902C33.2763 41.7771 32.677 41.7582 32.4632 41.7146C32.2461 41.6384 32.022 41.6205 31.8083 41.6529C31.447 41.7076 31.1169 41.9071 30.8999 42.2119C30.8344 42.3037 30.7782 42.4042 30.7358 42.5144C30.4648 43.2192 30.8163 44.0103 31.5211 44.2813C32.3281 44.5917 33.3021 44.483 34.1412 44.4175C35.5209 44.3097 36.8938 44.1085 38.2622 43.9063C38.8233 43.8233 39.275 43.4025 39.3973 42.8486C39.5195 42.2947 39.2872 41.7228 38.8132 41.4112C38.7488 41.369 38.6859 41.327 38.6245 41.2851C38.1939 40.9927 37.8314 40.7117 37.5214 40.4305C37.6857 40.3319 37.8832 40.2265 38.0552 40.1367C38.1125 40.1067 38.167 40.0786 38.2165 40.053C38.8437 39.7288 39.4883 39.3958 39.9547 38.8966C40.4581 39.021 41.6234 39.5598 44.3123 41.4402C45.2635 42.1084 46.253 42.7214 47.2404 43.3342C46.6632 44.0545 46.0463 44.7436 45.3966 45.3933C45.1658 45.6241 44.9151 45.8636 44.6302 46.1257C44.3992 46.3383 44.1948 46.5209 44.0055 46.6838C34.4849 54.8764 20.1731 54.6078 10.9352 46.2311C11.6087 45.1431 12.2945 43.9355 12.4891 42.6509C13.0276 39.0962 14.0625 36.8347 14.7961 36.2376C16.1828 35.1089 17.4774 33.7548 17.5319 33.6978C17.6256 33.5995 17.7179 33.4654 17.7765 33.3429C18.0511 32.7671 18.2137 32.515 18.302 32.4049C18.4787 32.4554 18.8913 32.6322 19.7848 33.2353C20.3877 33.642 21.1969 33.5028 21.6333 32.933C21.65 32.9111 21.6673 32.89 21.6829 32.8669C22.1054 32.241 21.9405 31.3913 21.3146 30.9688C19.8448 29.9767 18.7034 29.4244 17.5577 29.7369C16.4758 30.0317 15.891 30.9754 15.4077 31.9602C15.134 32.2392 14.501 32.8723 13.7722 33.5184C13.5421 33.7224 13.3085 33.9229 13.07 34.1169C10.956 35.8374 10.0688 40.3717 9.7855 42.2413C9.67967 42.9398 9.29384 43.6155 8.95066 44.2183C5.20238 39.9637 3.03886 34.6327 2.76446 28.9564Z" fill="#F9DF5A"/>
<path d="M48.3481 40.8028C48.3471 40.8023 48.3462 40.8016 48.3452 40.801C48.3546 40.8069 48.3567 40.8081 48.3481 40.8028Z" fill="#4A4A4A"/>
<path d="M15.7681 16.0158C15.8242 16.0158 15.8808 16.0124 15.9378 16.0053C17.3802 15.8269 18.5217 15.2788 19.3308 14.3763C19.8349 13.814 19.7878 12.9497 19.2254 12.4456C19.2174 12.4383 19.2086 12.4323 19.2003 12.4252C18.6378 11.9441 17.7915 11.9967 17.2946 12.5509C16.9293 12.9584 16.3913 13.1937 15.6018 13.2915C14.8897 13.3797 14.3746 14.0008 14.4048 14.7056C14.4065 14.7424 14.4082 14.7792 14.4129 14.8164C14.4986 15.5089 15.0879 16.0158 15.7681 16.0158Z" fill="#F9DF5A"/>
<path d="M32.6293 17.7083C32.2511 17.0672 31.4279 16.8447 30.7778 17.2137C29.7433 17.8009 29.2307 17.6858 28.8307 17.474C28.1633 17.1207 27.3359 17.3754 26.9826 18.0426C26.9025 18.1939 26.8551 18.3534 26.8353 18.5138C26.7675 19.0608 27.0352 19.6176 27.5512 19.8907C28.1737 20.2202 28.813 20.3853 29.4767 20.3853C30.3164 20.3853 31.195 20.1211 32.1275 19.5919C32.7842 19.2191 33.0144 18.3846 32.6417 17.7279C32.6379 17.7212 32.6332 17.715 32.6293 17.7083Z" fill="#F9DF5A"/>
<path d="M25.5686 38.856C25.8203 39.0566 26.1209 39.1539 26.4195 39.1539C26.7969 39.1539 27.1696 38.9964 27.4373 38.6971C27.4548 38.6776 27.4733 38.6593 27.4898 38.6385C27.9603 38.0478 27.8629 37.1876 27.2723 36.7172C26.7341 36.2886 26.1986 35.7289 25.5601 35.0201C25.0552 34.4598 24.1923 34.4143 23.6312 34.918C23.6305 34.9185 23.6298 34.9191 23.6291 34.9196C23.0682 35.4251 23.0232 36.2896 23.5287 36.8506C24.2578 37.6598 24.8839 38.3106 25.5686 38.856Z" fill="#F9DF5A"/>
<path d="M27.8888 7.10787C30.0873 7.1251 32.2551 7.48728 34.3317 8.1843C34.4759 8.2327 34.6226 8.25567 34.7669 8.25567C35.3382 8.25567 35.871 7.89458 36.0629 7.32308C36.3031 6.60719 35.9175 5.8321 35.2016 5.59188C32.8511 4.80298 30.398 4.39309 27.9103 4.37354C27.9066 4.37354 27.903 4.37354 27.8994 4.37354C27.1493 4.37354 26.5383 4.97867 26.5324 5.72997C26.5265 6.4851 27.1338 7.10199 27.8888 7.10787Z" fill="#F9DF5A"/>
<path d="M38.6128 10.1947C39.3203 10.6328 40.0094 11.1198 40.6609 11.6423C40.9133 11.8447 41.2153 11.9431 41.5154 11.9431C41.9159 11.9431 42.3128 11.768 42.5828 11.4312C43.0553 10.8422 42.9607 9.98167 42.3717 9.50916C41.634 8.91742 40.8534 8.36574 40.0519 7.86956C39.4099 7.47197 38.5671 7.67022 38.1698 8.31241C37.7725 8.9546 37.9707 9.79737 38.6128 10.1947Z" fill="#F9DF5A"/>
<path d="M58.2616 13.9308C57.9526 13.2417 57.1437 12.9337 56.4547 13.2425C55.7656 13.5515 55.4575 14.3605 55.7665 15.0495C60.949 26.6081 58.411 40.3939 49.4511 49.3537C37.4719 61.333 17.9799 61.333 6.00074 49.3537C5.46683 48.8198 4.6011 48.8198 4.06706 49.3537C3.53315 49.8876 3.53315 50.7534 4.06706 51.2874C10.3866 57.6069 18.7888 61.0872 27.7259 61.0872C36.6629 61.0872 45.0652 57.6069 51.3847 51.2874C56.2754 46.3965 59.4898 40.2228 60.6798 33.4335C61.8431 26.7976 61.0069 20.0537 58.2616 13.9308Z" fill="#4A4A4A"/>
<path d="M52.765 9.81484C53.0319 10.1889 53.4523 10.3883 53.8792 10.3883C54.1538 10.3883 54.4314 10.3057 54.672 10.134C55.2867 9.69548 55.4296 8.84164 54.9911 8.22693C53.9168 6.72078 52.7035 5.28847 51.3848 3.96977C50.8509 3.43586 49.9851 3.43586 49.4511 3.96977C48.9172 4.50367 48.9172 5.36941 49.4511 5.90345C50.6631 7.1155 51.7781 8.43147 52.765 9.81484Z" fill="#4A4A4A"/>
<path d="M35.8336 67.2656H30.3048V64.9271C30.3048 64.1719 29.6926 63.5598 28.9375 63.5598C28.1824 63.5598 27.5703 64.1719 27.5703 64.9271V67.2656H22.0413C21.2862 67.2656 20.6741 67.8777 20.6741 68.6328C20.6741 69.3879 21.2862 70 22.0413 70H35.8336C36.5887 70 37.2008 69.3879 37.2008 68.6328C37.2008 67.8777 36.5887 67.2656 35.8336 67.2656Z" fill="#4A4A4A"/>
</svg>
