<svg width="53" height="70" viewBox="0 0 53 70" fill="none" xmlns="http://www.w3.org/2000/svg">
<path fill-rule="evenodd" clip-rule="evenodd" d="M1.00056 30.0408C0.421957 30.2127 0 30.7486 0 31.383V40.872C0 41.6452 0.626788 42.272 1.40005 42.272H5.50587L8.71106 64.2666C9.18739 67.5352 12.2449 70 15.823 70H36.9379C40.5161 70 43.5735 67.5352 44.0499 64.2666L47.2551 42.272H51.3609C52.1341 42.272 52.7609 41.6452 52.7609 40.872V31.383C52.7608 30.7486 52.3386 30.2126 51.7597 30.0408H1.00056ZM36.9378 67.2002C39.1354 67.2002 41.0017 65.7656 41.2789 63.8631L44.4252 42.2723H8.33548L11.4819 63.8631C11.7592 65.7656 13.6254 67.2002 15.823 67.2002H36.9378ZM2.80009 39.4721H49.9608V32.7832H2.80009V39.4721Z" fill="#4A4A4A"/>
<path fill-rule="evenodd" clip-rule="evenodd" d="M27.6762 30.0407V22.8585H31.6904C40.5372 22.8585 47.7345 15.6612 47.7345 6.81436V1.40005C47.7345 0.626788 47.1078 0 46.3345 0H40.9203C34.4063 0 28.7871 3.90225 26.2762 9.49186C23.7655 3.90225 18.1461 0 11.6321 0H6.2179C5.44464 0 4.81786 0.626788 4.81786 1.40005V6.81422C4.81786 15.661 12.0152 22.8584 20.862 22.8584H24.8762V30.0407H27.6762ZM40.9202 2.80023C33.6174 2.80023 27.6762 8.74139 27.6762 16.0442V18.0783L35.1923 10.5619C35.7392 10.0153 36.6257 10.0153 37.1725 10.5619C37.7193 11.1088 37.7193 11.9953 37.1725 12.5421L29.6563 20.0583H31.6904C38.9932 20.0583 44.9343 14.1171 44.9343 6.81436V2.80023H40.9202ZM22.896 20.0584L11.5505 8.71298C11.0038 8.16608 11.0038 7.27958 11.5505 6.73268C12.0974 6.18592 12.9839 6.18592 13.5307 6.73268L24.8762 18.0781V16.044C24.8762 8.74126 18.935 2.80009 11.6321 2.80009H7.61795V6.81436C7.61795 14.1173 13.5591 20.0584 20.8619 20.0584H22.896Z" fill="#F9DF5A"/>
</svg>
