<svg width="50" height="70" viewBox="0 0 50 70" fill="none" xmlns="http://www.w3.org/2000/svg">
<path d="M47.0742 28.4615C48.4458 27.2455 50 25.8675 50 23.937C50 22.0065 48.4458 20.6283 47.0742 19.4123C46.2982 18.7244 45.4186 17.9445 45.2307 17.3658C45.0244 16.7313 45.2821 15.5417 45.5097 14.492C45.8897 12.7377 46.3204 10.749 45.2253 9.24515C44.1203 7.72753 42.0833 7.52408 40.2862 7.34472C39.226 7.23889 38.0249 7.11906 37.5 6.73718C36.9884 6.3652 36.5102 5.27089 36.0884 4.30537C35.3599 2.6388 34.5346 0.749945 32.7264 0.163315C32.3926 0.0550607 32.0382 0 31.6728 0C30.2919 0 28.9768 0.766183 27.7051 1.50736C26.7624 2.05647 25.6942 2.67893 25 2.67893C24.3052 2.67893 23.2372 2.05647 22.2945 1.50736C21.0228 0.766183 19.7078 0 18.3266 0C17.9608 0 17.6065 0.0550607 17.2728 0.163315C15.465 0.750131 14.6398 2.63899 13.9116 4.30518C13.4896 5.2707 13.0112 6.36501 12.5 6.737C11.9748 7.11888 10.7736 7.2387 9.71384 7.34453C7.91634 7.5239 5.87928 7.72734 4.77467 9.24496C3.67959 10.749 4.11015 12.7375 4.49068 14.4918C4.71791 15.5415 4.97576 16.7312 4.76963 17.3656C4.58142 17.9442 3.70218 18.724 2.9262 19.412C1.55459 20.6281 0 22.0063 0 23.9368C0 25.8675 1.55459 27.2459 2.9262 28.4617C3.70218 29.1497 4.5818 29.9293 4.76963 30.5075C4.97576 31.1423 4.71791 32.3322 4.49068 33.3819C4.11034 35.1362 3.67959 37.1249 4.77449 38.6287C5.87834 40.1446 7.91223 40.3492 9.70787 40.5284L2.43364 63.9614C2.27101 64.4848 2.42897 65.0546 2.83769 65.4199C3.24622 65.7852 3.83064 65.8783 4.3329 65.6584L11.8603 62.363L16.1996 69.3393C16.457 69.7536 16.9089 70 17.3884 70C17.4474 70 17.5073 69.9965 17.5671 69.9886C18.1108 69.919 18.5638 69.5384 18.726 69.0151L25 48.8052L31.2736 69.0151C31.4362 69.5384 31.8892 69.919 32.4329 69.9886C32.4927 69.9965 32.5522 70 32.6116 70C33.0911 70 33.5426 69.7534 33.8004 69.3393L38.1393 62.363L45.6669 65.6584C46.1684 65.8783 46.7532 65.7855 47.1617 65.4199C47.5705 65.0546 47.7284 64.4846 47.5662 63.9614L40.2919 40.5289C42.088 40.3496 44.1215 40.145 45.2253 38.6291C46.3204 37.1251 45.8898 35.1365 45.5097 33.3821C45.2821 32.3324 45.0242 31.1425 45.2307 30.5079C45.4186 29.9291 46.2982 29.1495 47.0742 28.4615ZM16.9595 65.2592L13.5986 59.8554C13.231 59.2643 12.4849 59.0332 11.8474 59.3123L6.01689 61.8648L12.4593 41.1109C12.4724 41.1199 12.4869 41.1281 12.4998 41.1372C13.011 41.5092 13.4896 42.6033 13.9114 43.5688C14.6396 45.2352 15.4652 47.1241 17.273 47.7105C17.6066 47.819 17.9616 47.8738 18.327 47.8738C19.7079 47.8738 21.023 47.1075 22.2947 46.3669C22.5051 46.2442 22.7217 46.1182 22.9394 45.996L16.9595 65.2592ZM38.152 59.3121C37.5149 59.0332 36.7688 59.2647 36.4012 59.8552L33.0399 65.259L27.0604 45.9954C27.2777 46.1175 27.4947 46.2437 27.7051 46.3663C28.9768 47.1075 30.2919 47.8735 31.6728 47.8735C32.0386 47.8735 32.393 47.8186 32.7268 47.7103C34.5346 47.1235 35.3602 45.2347 36.0884 43.5685C36.5104 42.6029 36.9888 41.5088 37.5 41.1368C37.5123 41.1277 37.5271 41.1195 37.5405 41.1107L43.9829 61.8645L38.152 59.3121ZM42.5667 29.6432C42.1272 30.9963 42.455 32.5102 42.7721 33.9743C43.0154 35.0958 43.3177 36.4916 42.961 36.9815C42.5941 37.4853 41.16 37.6284 40.0079 37.7434C38.5249 37.8914 36.991 38.0443 35.8521 38.8732C34.7263 39.692 34.1139 41.093 33.522 42.4475C33.0541 43.5175 32.4721 44.8494 31.8616 45.0476C31.8069 45.0654 31.7453 45.074 31.6726 45.074C31.0483 45.074 30.0213 44.4756 29.1152 43.9477C27.8052 43.1845 26.4508 42.3954 24.9998 42.3954C23.5485 42.3954 22.194 43.1847 20.8841 43.9477C19.9781 44.4756 18.9512 45.074 18.327 45.074C18.2544 45.074 18.1927 45.0654 18.138 45.0475C17.5275 44.8494 16.9455 43.5177 16.4776 42.4475C15.8857 41.0928 15.2735 39.6918 14.1476 38.8732C13.0082 38.0443 11.4746 37.8912 9.99092 37.7432C8.83889 37.6283 7.4053 37.4851 7.0384 36.9815C6.68178 36.4916 6.98407 35.096 7.22698 33.9747C7.54421 32.5106 7.87246 30.9967 7.43274 29.643C7.00965 28.3402 5.87816 27.3371 4.78401 26.3673C3.85398 25.5427 2.80016 24.6084 2.80016 23.937C2.80016 23.2656 3.85398 22.3311 4.78401 21.5067C5.87797 20.5367 7.00965 19.5335 7.43312 18.2303C7.87246 16.8769 7.5444 15.3632 7.22736 13.8992C6.98407 12.7776 6.68178 11.3822 7.0384 10.8923C7.4053 10.3885 8.83927 10.2454 9.99148 10.1304C11.4746 9.9824 13.0081 9.82954 14.1474 9.00083C15.2731 8.18164 15.8855 6.78067 16.4774 5.42599C16.9453 4.35595 17.5273 3.02423 18.1375 2.82601C18.1922 2.80847 18.2542 2.79969 18.3266 2.79969C18.951 2.79969 19.9779 3.39827 20.8841 3.9261C22.194 4.68949 23.5485 5.47863 24.9998 5.47863C26.4508 5.47863 27.8052 4.6893 29.1152 3.9261C30.0215 3.39827 31.0484 2.79969 31.6728 2.79969C31.7454 2.79969 31.8071 2.80847 31.8614 2.8262C32.472 3.02423 33.0539 4.35595 33.5219 5.42637C34.1141 6.78123 34.7263 8.1822 35.8521 9.00102C36.991 9.82954 38.5247 9.98259 40.0079 10.1306C41.16 10.2456 42.5943 10.3887 42.961 10.8925C43.3177 11.3824 43.0154 12.7782 42.7721 13.8994C42.4552 15.3634 42.1274 16.8773 42.5667 18.2303C42.9898 19.5335 44.1213 20.5367 45.2158 21.5071C46.1455 22.3313 47.1993 23.2658 47.1993 23.9372C47.1993 24.6086 46.1453 25.5429 45.2158 26.3671C44.1215 27.337 42.9898 28.3402 42.5667 29.6432Z" fill="#4A4A4A"/>
<path d="M24.9998 8.07129C16.2483 8.07129 9.1283 15.1887 9.1283 23.937C9.1283 32.6853 16.2483 39.8026 24.9998 39.8026C33.7513 39.8026 40.8713 32.6853 40.8713 23.937C40.8713 15.1887 33.7515 8.07129 24.9998 8.07129ZM24.9998 37.003C17.7922 37.003 11.929 31.1417 11.929 23.937C11.929 16.7322 17.7922 10.871 24.9998 10.871C32.207 10.871 38.0706 16.7322 38.0706 23.937C38.0706 31.1417 32.207 37.003 24.9998 37.003Z" fill="#F9DF5A"/>
<path d="M24.9998 12.9133C18.9192 12.9133 13.9719 17.8585 13.9719 23.9372C13.9719 24.7105 14.5987 25.3371 15.3722 25.3371C16.1458 25.3371 16.7726 24.7105 16.7726 23.9372C16.7726 19.4025 20.4632 15.713 24.9998 15.713C25.7734 15.713 26.4002 15.0865 26.4002 14.3132C26.4002 13.5399 25.7734 12.9133 24.9998 12.9133Z" fill="#F9DF5A"/>
</svg>
