<svg width="50" height="50" viewBox="0 0 50 50" fill="none" xmlns="http://www.w3.org/2000/svg">
<path d="M40.2009 14.0737C40.2009 14.4313 40.1303 14.7855 39.9935 15.1159C39.8568 15.4464 39.6559 15.7466 39.4033 15.9995C39.1503 16.2524 38.85 16.453 38.5194 16.5899C38.1891 16.7268 37.835 16.7972 37.4774 16.7972C37.1197 16.7972 36.7656 16.7268 36.435 16.5899C36.1047 16.453 35.8044 16.2524 35.5515 15.9995C35.2985 15.7466 35.098 15.4464 34.9612 15.1159C34.8241 14.7855 34.7538 14.4313 34.7538 14.0737C34.7538 13.3514 35.0406 12.6586 35.5515 12.1479C36.0624 11.6371 36.755 11.3501 37.4774 11.3501C38.1997 11.3501 38.8924 11.6371 39.4033 12.1479C39.9138 12.6586 40.2009 13.3514 40.2009 14.0737ZM48.848 26.3678V26.4031L48.6921 36.2737C48.6524 39.8334 47.2206 43.2364 44.7035 45.7537C42.1868 48.2714 38.7841 49.7037 35.2244 49.7443L25.3185 49.8972H25.2832L15.4126 49.7414C11.8528 49.7017 8.44999 48.2699 5.93243 45.7531C3.41484 43.2361 1.98252 39.8334 1.942 36.2737L1.78906 26.3678V26.3325L1.94494 16.4619C1.98468 12.9021 3.41625 9.4993 5.93328 6.98174C8.45031 4.46415 11.8528 3.03183 15.4126 2.99133L25.3185 2.83838H25.3538L35.2244 2.99427C38.7841 3.034 42.1871 4.46556 44.7044 6.98259C47.2221 9.49962 48.6544 12.9021 48.695 16.4619L48.848 26.3678ZM44.4656 26.3678L44.3127 16.5296C44.285 14.1098 43.3115 11.7969 41.6006 10.0858C39.8894 8.37465 37.5765 7.40118 35.1568 7.37368L25.3185 7.22074L15.4803 7.37368C13.0605 7.40118 10.7476 8.37465 9.03646 10.0858C7.32534 11.7969 6.35187 14.1098 6.32437 16.5296L6.17143 26.3678L6.32437 36.2061C6.35187 38.6258 7.32534 40.9387 9.03646 42.6499C10.7476 44.3611 13.0605 45.3343 15.4803 45.3619L25.3185 45.5149L35.1568 45.3619C37.5765 45.3343 39.8894 44.3611 41.6006 42.6499C43.3115 40.9387 44.285 38.6258 44.3127 36.2061L44.4656 26.3678ZM37.4009 26.3678C37.4009 29.5722 36.128 32.6455 33.8621 34.9114C31.5962 37.1772 28.5229 38.4502 25.3185 38.4502C22.114 38.4502 19.0408 37.1772 16.775 34.9114C14.5091 32.6455 13.2361 29.5722 13.2361 26.3678C13.2361 23.1634 14.5091 20.0902 16.775 17.8243C19.0408 15.5584 22.114 14.2854 25.3185 14.2854C28.5229 14.2854 31.5962 15.5584 33.8621 17.8243C36.128 20.0902 37.4009 23.1634 37.4009 26.3678ZM33.0185 26.3678C33.0185 24.3256 32.2074 22.3671 30.7633 20.9231C29.3192 19.479 27.3606 18.6678 25.3185 18.6678C23.2763 18.6678 21.3178 19.479 19.8738 20.9231C18.4297 22.3671 17.6185 24.3256 17.6185 26.3678C17.6185 28.4099 18.4297 30.3684 19.8738 31.8125C21.3178 33.2567 23.2763 34.0678 25.3185 34.0678C27.3606 34.0678 29.3192 33.2567 30.7633 31.8125C32.2074 30.3684 33.0185 28.4099 33.0185 26.3678Z" fill="#F9DF5A"/>
</svg>
