<svg width="50" height="50" viewBox="0 0 50 50" fill="none" xmlns="http://www.w3.org/2000/svg">
<path fill-rule="evenodd" clip-rule="evenodd" d="M0 25C0 11.1929 11.1929 0 25 0C38.8071 0 50 11.1929 50 25C50 38.8071 38.8071 50 25 50C11.1929 50 0 38.8071 0 25ZM25.2564 12.5H25.2552C25.2322 12.5 25.2106 12.5 25.19 12.5003C25.0258 12.502 24.7558 12.5046 24.7316 12.5048C24.1396 12.5048 22.9552 12.5882 21.6829 13.1481C20.9554 13.4681 20.3011 13.9006 19.7382 14.434C19.067 15.0694 18.5202 15.8527 18.1133 16.7627C17.5174 18.0951 17.6589 20.3394 17.7725 22.1429L17.7729 22.1457C17.7851 22.3389 17.7978 22.5405 17.8095 22.7371C17.7221 22.7771 17.5804 22.8194 17.3715 22.8194C17.0353 22.8194 16.6356 22.7122 16.1836 22.501C16.0507 22.4393 15.899 22.4081 15.7316 22.4081C15.4625 22.4081 15.1789 22.4871 14.9328 22.6312C14.6233 22.8125 14.4233 23.0686 14.369 23.3526C14.3332 23.5404 14.3349 23.9117 14.7485 24.2882C14.976 24.4955 15.3102 24.6867 15.7416 24.8567C15.8548 24.901 15.9892 24.9435 16.1315 24.9885C16.6252 25.145 17.3726 25.3815 17.5674 25.8387C17.6662 26.0706 17.6237 26.3757 17.4415 26.7446C17.4367 26.7546 17.4319 26.7645 17.4276 26.7748C17.382 26.8808 16.9572 27.8404 16.0856 28.8525C15.5904 29.428 15.0449 29.909 14.4652 30.2825C13.7577 30.7384 12.9922 31.0365 12.19 31.1682C11.875 31.2198 11.6501 31.4996 11.6676 31.8176C11.673 31.9093 11.6946 32.0006 11.732 32.0891C11.7323 32.0896 11.7326 32.0902 11.7329 32.0906C11.8602 32.3877 12.1555 32.64 12.6356 32.8626C13.2223 33.1343 14.0997 33.3629 15.2432 33.5417C15.3009 33.6512 15.3609 33.9266 15.4025 34.1151C15.4459 34.3155 15.4914 34.5216 15.5559 34.7404C15.6256 34.9775 15.8065 35.2608 16.2711 35.2608C16.4472 35.2608 16.6497 35.2214 16.8842 35.1759C17.2276 35.1088 17.6972 35.0172 18.2832 35.0172C18.6082 35.0172 18.945 35.0456 19.284 35.1019C19.9374 35.2103 20.5006 35.6071 21.1524 36.0666C22.1064 36.739 23.1862 37.5 24.836 37.5C24.881 37.5 24.9261 37.4985 24.9707 37.4954C25.0252 37.498 25.0928 37.5 25.1642 37.5C26.8145 37.5 27.894 36.7386 28.8469 36.0668L28.8484 36.0654C29.5003 35.6065 30.063 35.2103 30.7162 35.1019C31.055 35.0457 31.3918 35.0172 31.7168 35.0172C32.2768 35.0172 32.7201 35.0883 33.1159 35.1653C33.3743 35.216 33.575 35.2404 33.7291 35.2404L33.7441 35.2406H33.7597C34.0995 35.2406 34.3492 35.0547 34.4445 34.7293C34.5078 34.515 34.553 34.3138 34.5976 34.11C34.6365 33.9333 34.6984 33.6501 34.7562 33.5394C35.9005 33.3603 36.7776 33.1322 37.3644 32.8605C37.8433 32.6391 38.1382 32.387 38.2664 32.0911C38.3048 32.0025 38.3273 31.9105 38.3323 31.817C38.3503 31.4995 38.1251 31.2191 37.8099 31.1676C34.2449 30.5818 32.639 26.9294 32.5725 26.7742C32.5682 26.764 32.5634 26.7539 32.5583 26.744C32.3761 26.3751 32.3341 26.0703 32.4328 25.838C32.6273 25.381 33.3742 25.1447 33.8683 24.9882C34.0114 24.9433 34.1461 24.9006 34.2584 24.8564C34.7449 24.6648 35.0926 24.457 35.322 24.2209C35.5959 23.9396 35.6493 23.6701 35.6459 23.4936C35.6376 23.0669 35.3104 22.6876 34.7899 22.5019C34.6141 22.4294 34.4135 22.3911 34.2094 22.3911C34.0704 22.3911 33.8646 22.4102 33.6698 22.5008C33.2527 22.6954 32.8792 22.8019 32.5584 22.817C32.3878 22.8083 32.2682 22.7715 32.1907 22.7362C32.2005 22.5698 32.2112 22.3987 32.2224 22.2204L32.2271 22.1441C32.3412 20.3395 32.4832 18.0934 31.8871 16.7601C31.4784 15.8469 30.9297 15.0615 30.2558 14.4247C29.6906 13.8911 29.0342 13.4585 28.3041 13.1389C27.0335 12.583 25.8492 12.5 25.2564 12.5Z" fill="#F9DF5A"/>
</svg>
