<svg width="50" height="50" viewBox="0 0 50 50" fill="none" xmlns="http://www.w3.org/2000/svg">
<path fill-rule="evenodd" clip-rule="evenodd" d="M50 25C50 38.8071 38.8071 50 25 50C11.1929 50 0 38.8071 0 25C0 11.1929 11.1929 0 25 0C38.8071 0 50 11.1929 50 25ZM16.7411 22.7099C14.2368 23.8033 11.6636 24.9269 9.31068 26.2229C8.08205 27.1225 9.71498 27.7589 11.247 28.3557C11.4905 28.4506 11.7315 28.5445 11.958 28.6382C12.1466 28.6962 12.3382 28.7573 12.5325 28.8192C14.2364 29.362 16.1361 29.9673 17.7903 29.0568C20.5076 27.4958 23.0719 25.6912 25.6343 23.888C26.4737 23.2972 27.313 22.7066 28.1574 22.1247C28.197 22.0994 28.2416 22.0704 28.2904 22.0389C29.0097 21.5725 30.6275 20.5239 30.0291 21.9689C28.6141 23.5164 27.0983 24.8861 25.5745 26.2635C24.5474 27.1918 23.5166 28.1234 22.5103 29.1151C21.634 29.8272 20.7239 31.2592 21.7052 32.2564C23.9655 33.8386 26.2611 35.3826 28.5554 36.9257C29.302 37.4278 30.0485 37.9299 30.7935 38.4332C32.0562 39.4414 34.0297 38.6258 34.3073 37.0505C34.4307 36.3258 34.5547 35.6012 34.6786 34.8766C35.3636 30.8717 36.0489 26.8653 36.6542 22.8474C36.7365 22.2171 36.8297 21.5869 36.923 20.9564C37.1492 19.4281 37.3756 17.898 37.4464 16.3616C37.2641 14.8282 35.4049 15.1654 34.3703 15.5102C29.0524 17.5337 23.7876 19.7073 18.5436 21.9192C17.9496 22.1823 17.3474 22.4452 16.7411 22.7099Z" fill="#F9DF5A"/>
</svg>
