<svg width="50" height="50" viewBox="0 0 50 50" fill="none" xmlns="http://www.w3.org/2000/svg">
<path fill-rule="evenodd" clip-rule="evenodd" d="M0 25C0 11.1929 11.1929 0 25 0C38.8071 0 50 11.1929 50 25C50 38.8071 38.8071 50 25 50C11.1929 50 0 38.8071 0 25ZM26.3078 33.2043C26.3078 33.2043 26.7891 33.1518 27.0355 32.8919C27.2611 32.6537 27.2533 32.2044 27.2533 32.2044C27.2533 32.2044 27.2233 30.106 28.2159 29.7961C29.1942 29.4915 30.4501 31.8254 31.7831 32.7229C32.79 33.4015 33.5543 33.2529 33.5543 33.2529L37.1162 33.2043C37.1162 33.2043 38.9787 33.0916 38.0957 31.6539C38.0227 31.536 37.5805 30.59 35.4481 28.6465C33.2139 26.6122 33.5139 26.9411 36.2032 23.4218C37.8415 21.2785 38.4961 19.9701 38.2914 19.4107C38.0971 18.8755 36.8919 19.0176 36.8919 19.0176L32.8826 19.042C32.8826 19.042 32.5852 19.0023 32.3648 19.1316C32.1496 19.2583 32.01 19.5541 32.01 19.5541C32.01 19.5541 31.3761 21.212 30.5297 22.6228C28.7442 25.5982 28.0307 25.7556 27.7385 25.5714C27.0591 25.1399 27.2285 23.8404 27.2285 22.9173C27.2285 20.0329 27.6747 18.8307 26.3612 18.5196C25.9256 18.4159 25.6048 18.348 24.4896 18.3366C23.0589 18.3225 21.8484 18.3417 21.1624 18.6707C20.7059 18.8896 20.3537 19.3786 20.569 19.4069C20.8337 19.4414 21.4338 19.5656 21.752 19.9906C22.1628 20.5399 22.1484 21.7715 22.1484 21.7715C22.1484 21.7715 22.3846 25.1668 21.5968 25.5879C21.0568 25.8773 20.3159 25.2871 18.7234 22.587C17.9083 21.2044 17.2927 19.6757 17.2927 19.6757C17.2927 19.6757 17.174 19.3902 16.9614 19.2366C16.7045 19.0509 16.3457 18.9933 16.3457 18.9933L12.536 19.0176C12.536 19.0176 11.9634 19.033 11.7534 19.2775C11.567 19.4939 11.7391 19.9432 11.7391 19.9432C11.7391 19.9432 14.722 26.794 18.1 30.2469C21.1976 33.4117 24.714 33.2043 24.714 33.2043H26.3078Z" fill="#F9DF5A"/>
</svg>
